<mxfile host="app.diagrams.net" modified="2023-05-15T16:45:07.557Z" agent="Mozilla/5.0 (Windows NT 10.0; Win64; x64) AppleWebKit/537.36 (KHTML, like Gecko) Chrome/113.0.0.0 Safari/537.36" version="21.1.4" etag="jHMWs0R853B4CqlXv2_4" type="github">
  <diagram name="Page-1" id="NQFakxoYkVoBB0L2_mfe">
    <mxGraphModel>
      <root>
        <mxCell id="0" />
        <mxCell id="1" parent="0" />
      </root>
    </mxGraphModel>
  </diagram>
</mxfile>
